<svg width="91" height="24" viewBox="0 0 91 24" fill="none" xmlns="http://www.w3.org/2000/svg">
<path d="M4.13086 12.5664L13.4473 15.9355V19.9053L0.791016 14.5439V11.7314L4.13086 12.5664ZM13.4473 9.8125L4.11621 13.2402L0.791016 14.0312V11.2188L13.4473 5.85742V9.8125ZM26.0449 0.671875L18.2227 23.8311H15.0879L22.9102 0.671875H26.0449ZM42.041 18.5723V22H31.3037V18.5723H42.041ZM32.7246 0.671875V22H28.3301V0.671875H32.7246ZM51.5918 22.293C50.3613 22.293 49.2578 22.0977 48.2812 21.707C47.3047 21.3066 46.4746 20.7549 45.791 20.0518C45.1172 19.3486 44.5996 18.5332 44.2383 17.6055C43.877 16.668 43.6963 15.6719 43.6963 14.6172V14.0312C43.6963 12.8301 43.8672 11.7314 44.209 10.7354C44.5508 9.73926 45.0391 8.875 45.6738 8.14258C46.3184 7.41016 47.0996 6.84863 48.0176 6.45801C48.9355 6.05762 49.9707 5.85742 51.123 5.85742C52.2461 5.85742 53.2422 6.04297 54.1113 6.41406C54.9805 6.78516 55.708 7.3125 56.2939 7.99609C56.8896 8.67969 57.3389 9.5 57.6416 10.457C57.9443 11.4043 58.0957 12.459 58.0957 13.6211V15.3789H45.498V12.5664H53.9502V12.2441C53.9502 11.6582 53.8428 11.1357 53.6279 10.6768C53.4229 10.208 53.1104 9.83691 52.6904 9.56348C52.2705 9.29004 51.7334 9.15332 51.0791 9.15332C50.5225 9.15332 50.0439 9.27539 49.6436 9.51953C49.2432 9.76367 48.916 10.1055 48.6621 10.5449C48.418 10.9844 48.2324 11.502 48.1055 12.0977C47.9883 12.6836 47.9297 13.3281 47.9297 14.0312V14.6172C47.9297 15.252 48.0176 15.8379 48.1934 16.375C48.3789 16.9121 48.6377 17.376 48.9697 17.7666C49.3115 18.1572 49.7217 18.46 50.2002 18.6748C50.6885 18.8896 51.2402 18.9971 51.8555 18.9971C52.6172 18.9971 53.3252 18.8506 53.9795 18.5576C54.6436 18.2549 55.2148 17.8008 55.6934 17.1953L57.7441 19.4219C57.4121 19.9004 56.958 20.3594 56.3818 20.7988C55.8154 21.2383 55.1318 21.5996 54.3311 21.8828C53.5303 22.1562 52.6172 22.293 51.5918 22.293ZM59.8242 14.2363V13.9287C59.8242 12.7666 59.9902 11.6973 60.3223 10.7207C60.6543 9.73438 61.1377 8.87988 61.7725 8.15723C62.4072 7.43457 63.1885 6.87305 64.1162 6.47266C65.0439 6.0625 66.1084 5.85742 67.3096 5.85742C68.5107 5.85742 69.5801 6.0625 70.5176 6.47266C71.4551 6.87305 72.2412 7.43457 72.876 8.15723C73.5205 8.87988 74.0088 9.73438 74.3408 10.7207C74.6729 11.6973 74.8389 12.7666 74.8389 13.9287V14.2363C74.8389 15.3887 74.6729 16.458 74.3408 17.4443C74.0088 18.4209 73.5205 19.2754 72.876 20.0078C72.2412 20.7305 71.46 21.292 70.5322 21.6924C69.6045 22.0928 68.54 22.293 67.3389 22.293C66.1377 22.293 65.0684 22.0928 64.1309 21.6924C63.2031 21.292 62.417 20.7305 61.7725 20.0078C61.1377 19.2754 60.6543 18.4209 60.3223 17.4443C59.9902 16.458 59.8242 15.3887 59.8242 14.2363ZM64.043 13.9287V14.2363C64.043 14.9004 64.1016 15.5205 64.2188 16.0967C64.3359 16.6729 64.5215 17.1807 64.7754 17.6201C65.0391 18.0498 65.3809 18.3867 65.8008 18.6309C66.2207 18.875 66.7334 18.9971 67.3389 18.9971C67.9248 18.9971 68.4277 18.875 68.8477 18.6309C69.2676 18.3867 69.6045 18.0498 69.8584 17.6201C70.1123 17.1807 70.2979 16.6729 70.415 16.0967C70.542 15.5205 70.6055 14.9004 70.6055 14.2363V13.9287C70.6055 13.2842 70.542 12.6787 70.415 12.1123C70.2979 11.5361 70.1074 11.0283 69.8438 10.5889C69.5898 10.1396 69.2529 9.78809 68.833 9.53418C68.4131 9.28027 67.9053 9.15332 67.3096 9.15332C66.7139 9.15332 66.2061 9.28027 65.7861 9.53418C65.376 9.78809 65.0391 10.1396 64.7754 10.5889C64.5215 11.0283 64.3359 11.5361 64.2188 12.1123C64.1016 12.6787 64.043 13.2842 64.043 13.9287ZM86.9238 13.1523L77.5342 9.79785V5.85742L90.293 11.2188V14.0459L86.9238 13.1523ZM77.5342 15.9648L86.9385 12.5371L90.293 11.7314V14.5439L77.5342 19.9053V15.9648Z" fill="#005792"/>
</svg>
