<svg width="700" height="412" viewBox="0 0 700 412" fill="none" xmlns="http://www.w3.org/2000/svg">
<g clip-path="url(#clip0_110_2)">
<path d="M0 386.37C7.72868 395.528 16.0881 404.134 25.0172 412.126L674.983 413.015C683.912 405.023 692.271 396.417 700 387.26L0 386.37Z" fill="black"/>
<path d="M440.763 303.899V380.146C440.764 381.118 441.15 382.05 441.837 382.737C442.524 383.424 443.456 383.81 444.427 383.811H557.418C558.389 383.81 559.321 383.424 560.008 382.737C560.695 382.05 561.082 381.118 561.082 380.146V303.899C561.08 302.928 560.693 301.998 560.006 301.312C559.319 300.626 558.389 300.24 557.418 300.239H444.427C443.456 300.24 442.526 300.626 441.839 301.312C441.152 301.998 440.765 302.928 440.763 303.899Z" fill="black"/>
<path d="M443.413 304.848V379.206C443.414 379.725 443.621 380.223 443.988 380.59C444.355 380.957 444.853 381.163 445.372 381.164H556.477C556.996 381.163 557.494 380.957 557.861 380.59C558.228 380.223 558.435 379.725 558.436 379.206V304.848C558.436 304.328 558.229 303.829 557.862 303.462C557.495 303.094 556.997 302.886 556.477 302.885H445.372C444.852 302.886 444.354 303.094 443.987 303.462C443.62 303.829 443.414 304.328 443.413 304.848Z" fill="#005792"/>
<path d="M438.4 395.017C438.607 395.276 438.87 395.485 439.169 395.629C439.469 395.772 439.797 395.845 440.129 395.844H561.115C561.446 395.843 561.772 395.769 562.071 395.627C562.37 395.484 562.633 395.277 562.841 395.02C563.05 394.763 563.198 394.463 563.276 394.141C563.354 393.82 563.359 393.485 563.291 393.161L561.413 384.24C561.335 383.876 561.168 383.538 560.925 383.255C560.683 382.973 560.374 382.755 560.027 382.623C559.775 382.524 559.507 382.474 559.237 382.474H441.999C441.729 382.474 441.461 382.524 441.209 382.623C440.862 382.755 440.553 382.973 440.311 383.255C440.069 383.538 439.901 383.876 439.823 384.24L437.945 393.161C437.878 393.485 437.884 393.819 437.963 394.14C438.042 394.461 438.191 394.76 438.4 395.017Z" fill="#2F2E41"/>
<path d="M555.086 386.316H557.943C558.183 386.316 558.378 386.122 558.378 385.882V384.515C558.378 384.275 558.183 384.08 557.943 384.08H555.086C554.846 384.08 554.651 384.275 554.651 384.515V385.882C554.651 386.122 554.846 386.316 555.086 386.316Z" fill="black"/>
<path d="M547.633 386.316H550.491C550.73 386.316 550.925 386.122 550.925 385.882V384.515C550.925 384.275 550.73 384.08 550.491 384.08H547.633C547.393 384.08 547.199 384.275 547.199 384.515V385.882C547.199 386.122 547.393 386.316 547.633 386.316Z" fill="black"/>
<path d="M540.18 386.316H543.038C543.278 386.316 543.472 386.122 543.472 385.882V384.515C543.472 384.275 543.278 384.08 543.038 384.08H540.18C539.94 384.08 539.746 384.275 539.746 384.515V385.882C539.746 386.122 539.94 386.316 540.18 386.316Z" fill="black"/>
<path d="M532.728 386.316H535.585C535.825 386.316 536.02 386.122 536.02 385.882V384.515C536.02 384.275 535.825 384.08 535.585 384.08H532.728C532.488 384.08 532.293 384.275 532.293 384.515V385.882C532.293 386.122 532.488 386.316 532.728 386.316Z" fill="black"/>
<path d="M525.275 386.316H528.133C528.373 386.316 528.567 386.122 528.567 385.882V384.515C528.567 384.275 528.373 384.08 528.133 384.08H525.275C525.035 384.08 524.841 384.275 524.841 384.515V385.882C524.841 386.122 525.035 386.316 525.275 386.316Z" fill="black"/>
<path d="M517.822 386.316H520.68C520.92 386.316 521.114 386.122 521.114 385.882V384.515C521.114 384.275 520.92 384.08 520.68 384.08H517.822C517.582 384.08 517.388 384.275 517.388 384.515V385.882C517.388 386.122 517.582 386.316 517.822 386.316Z" fill="black"/>
<path d="M510.37 386.316H513.227C513.467 386.316 513.662 386.122 513.662 385.882V384.515C513.662 384.275 513.467 384.08 513.227 384.08H510.37C510.13 384.08 509.935 384.275 509.935 384.515V385.882C509.935 386.122 510.13 386.316 510.37 386.316Z" fill="black"/>
<path d="M502.917 386.316H505.775C506.015 386.316 506.209 386.122 506.209 385.882V384.515C506.209 384.275 506.015 384.08 505.775 384.08H502.917C502.677 384.08 502.483 384.275 502.483 384.515V385.882C502.483 386.122 502.677 386.316 502.917 386.316Z" fill="black"/>
<path d="M495.464 386.316H498.322C498.562 386.316 498.756 386.122 498.756 385.882V384.515C498.756 384.275 498.562 384.08 498.322 384.08H495.464C495.225 384.08 495.03 384.275 495.03 384.515V385.882C495.03 386.122 495.225 386.316 495.464 386.316Z" fill="black"/>
<path d="M488.012 386.316H490.869C491.109 386.316 491.304 386.122 491.304 385.882V384.515C491.304 384.275 491.109 384.08 490.869 384.08H488.012C487.772 384.08 487.577 384.275 487.577 384.515V385.882C487.577 386.122 487.772 386.316 488.012 386.316Z" fill="black"/>
<path d="M480.559 386.316H483.417C483.657 386.316 483.851 386.122 483.851 385.882V384.515C483.851 384.275 483.657 384.08 483.417 384.08H480.559C480.319 384.08 480.125 384.275 480.125 384.515V385.882C480.125 386.122 480.319 386.316 480.559 386.316Z" fill="black"/>
<path d="M473.106 386.316H475.964C476.204 386.316 476.398 386.122 476.398 385.882V384.515C476.398 384.275 476.204 384.08 475.964 384.08H473.106C472.867 384.08 472.672 384.275 472.672 384.515V385.882C472.672 386.122 472.867 386.316 473.106 386.316Z" fill="black"/>
<path d="M465.654 386.316H468.511C468.751 386.316 468.946 386.122 468.946 385.882V384.515C468.946 384.275 468.751 384.08 468.511 384.08H465.654C465.414 384.08 465.219 384.275 465.219 384.515V385.882C465.219 386.122 465.414 386.316 465.654 386.316Z" fill="black"/>
<path d="M458.201 386.316H461.059C461.299 386.316 461.493 386.122 461.493 385.882V384.515C461.493 384.275 461.299 384.08 461.059 384.08H458.201C457.961 384.08 457.767 384.275 457.767 384.515V385.882C457.767 386.122 457.961 386.316 458.201 386.316Z" fill="black"/>
<path d="M450.749 386.316H453.606C453.846 386.316 454.041 386.122 454.041 385.882V384.515C454.041 384.275 453.846 384.08 453.606 384.08H450.749C450.509 384.08 450.314 384.275 450.314 384.515V385.882C450.314 386.122 450.509 386.316 450.749 386.316Z" fill="black"/>
<path d="M443.296 386.316H446.154C446.393 386.316 446.588 386.122 446.588 385.882V384.515C446.588 384.275 446.393 384.08 446.154 384.08H443.296C443.056 384.08 442.862 384.275 442.862 384.515V385.882C442.862 386.122 443.056 386.316 443.296 386.316Z" fill="black"/>
<path d="M555.174 390.042H558.031C558.271 390.042 558.466 389.848 558.466 389.608V388.241C558.466 388.001 558.271 387.807 558.031 387.807H555.174C554.934 387.807 554.739 388.001 554.739 388.241V389.608C554.739 389.848 554.934 390.042 555.174 390.042Z" fill="black"/>
<path d="M547.721 390.042H550.579C550.819 390.042 551.013 389.848 551.013 389.608V388.241C551.013 388.001 550.819 387.807 550.579 387.807H547.721C547.481 387.807 547.287 388.001 547.287 388.241V389.608C547.287 389.848 547.481 390.042 547.721 390.042Z" fill="black"/>
<path d="M540.268 390.042H543.126C543.366 390.042 543.56 389.848 543.56 389.608V388.241C543.56 388.001 543.366 387.807 543.126 387.807H540.268C540.028 387.807 539.834 388.001 539.834 388.241V389.608C539.834 389.848 540.028 390.042 540.268 390.042Z" fill="black"/>
<path d="M532.816 390.042H535.673C535.913 390.042 536.108 389.848 536.108 389.608V388.241C536.108 388.001 535.913 387.807 535.673 387.807H532.816C532.576 387.807 532.381 388.001 532.381 388.241V389.608C532.381 389.848 532.576 390.042 532.816 390.042Z" fill="black"/>
<path d="M525.363 390.042H528.221C528.461 390.042 528.655 389.848 528.655 389.608V388.241C528.655 388.001 528.461 387.807 528.221 387.807H525.363C525.123 387.807 524.929 388.001 524.929 388.241V389.608C524.929 389.848 525.123 390.042 525.363 390.042Z" fill="black"/>
<path d="M517.91 390.042H520.768C521.008 390.042 521.202 389.848 521.202 389.608V388.241C521.202 388.001 521.008 387.807 520.768 387.807H517.91C517.67 387.807 517.476 388.001 517.476 388.241V389.608C517.476 389.848 517.67 390.042 517.91 390.042Z" fill="black"/>
<path d="M510.458 390.042H513.315C513.555 390.042 513.75 389.848 513.75 389.608V388.241C513.75 388.001 513.555 387.807 513.315 387.807H510.458C510.218 387.807 510.023 388.001 510.023 388.241V389.608C510.023 389.848 510.218 390.042 510.458 390.042Z" fill="black"/>
<path d="M503.005 390.042H505.863C506.103 390.042 506.297 389.848 506.297 389.608V388.241C506.297 388.001 506.103 387.807 505.863 387.807H503.005C502.765 387.807 502.571 388.001 502.571 388.241V389.608C502.571 389.848 502.765 390.042 503.005 390.042Z" fill="black"/>
<path d="M495.552 390.042H498.41C498.65 390.042 498.844 389.848 498.844 389.608V388.241C498.844 388.001 498.65 387.807 498.41 387.807H495.552C495.313 387.807 495.118 388.001 495.118 388.241V389.608C495.118 389.848 495.313 390.042 495.552 390.042Z" fill="black"/>
<path d="M488.1 390.042H490.957C491.197 390.042 491.392 389.848 491.392 389.608V388.241C491.392 388.001 491.197 387.807 490.957 387.807H488.1C487.86 387.807 487.666 388.001 487.666 388.241V389.608C487.666 389.848 487.86 390.042 488.1 390.042Z" fill="black"/>
<path d="M480.647 390.042H483.505C483.745 390.042 483.939 389.848 483.939 389.608V388.241C483.939 388.001 483.745 387.807 483.505 387.807H480.647C480.407 387.807 480.213 388.001 480.213 388.241V389.608C480.213 389.848 480.407 390.042 480.647 390.042Z" fill="black"/>
<path d="M473.195 390.042H476.052C476.292 390.042 476.487 389.848 476.487 389.608V388.241C476.487 388.001 476.292 387.807 476.052 387.807H473.195C472.955 387.807 472.76 388.001 472.76 388.241V389.608C472.76 389.848 472.955 390.042 473.195 390.042Z" fill="black"/>
<path d="M465.742 390.042H468.6C468.839 390.042 469.034 389.848 469.034 389.608V388.241C469.034 388.001 468.839 387.807 468.6 387.807H465.742C465.502 387.807 465.308 388.001 465.308 388.241V389.608C465.308 389.848 465.502 390.042 465.742 390.042Z" fill="black"/>
<path d="M458.289 390.042H461.147C461.387 390.042 461.581 389.848 461.581 389.608V388.241C461.581 388.001 461.387 387.807 461.147 387.807H458.289C458.049 387.807 457.855 388.001 457.855 388.241V389.608C457.855 389.848 458.049 390.042 458.289 390.042Z" fill="black"/>
<path d="M450.837 390.042H453.694C453.934 390.042 454.129 389.848 454.129 389.608V388.241C454.129 388.001 453.934 387.807 453.694 387.807H450.837C450.597 387.807 450.402 388.001 450.402 388.241V389.608C450.402 389.848 450.597 390.042 450.837 390.042Z" fill="black"/>
<path d="M443.384 390.042H446.242C446.481 390.042 446.676 389.848 446.676 389.608V388.241C446.676 388.001 446.481 387.807 446.242 387.807H443.384C443.144 387.807 442.95 388.001 442.95 388.241V389.608C442.95 389.848 443.144 390.042 443.384 390.042Z" fill="black"/>
<path d="M493.317 394.514H522.259C522.499 394.514 522.693 394.32 522.693 394.08V392.713C522.693 392.473 522.499 392.278 522.259 392.278H493.317C493.077 392.278 492.882 392.473 492.882 392.713V394.08C492.882 394.32 493.077 394.514 493.317 394.514Z" fill="black"/>
<path d="M462.654 319.153H460.124C459.357 319.153 458.735 319.775 458.735 320.542C458.735 321.309 459.357 321.931 460.124 321.931H462.654C463.421 321.931 464.042 321.309 464.042 320.542C464.042 319.775 463.421 319.153 462.654 319.153Z" fill="white"/>
<path d="M491.588 319.153H489.058C488.291 319.153 487.669 319.775 487.669 320.542C487.669 321.309 488.291 321.931 489.058 321.931H491.588C492.355 321.931 492.977 321.309 492.977 320.542C492.977 319.775 492.355 319.153 491.588 319.153Z" fill="white"/>
<path d="M499.786 319.153H497.256C496.489 319.153 495.867 319.775 495.867 320.542C495.867 321.309 496.489 321.931 497.256 321.931H499.786C500.553 321.931 501.175 321.309 501.175 320.542C501.175 319.775 500.553 319.153 499.786 319.153Z" fill="white"/>
<path d="M483.718 318.921H467.994C467.227 318.921 466.605 319.543 466.605 320.31C466.605 321.077 467.227 321.699 467.994 321.699H483.718C484.485 321.699 485.107 321.077 485.107 320.31C485.107 319.543 484.485 318.921 483.718 318.921Z" fill="white"/>
<path d="M522.297 318.921H506.573C505.806 318.921 505.184 319.543 505.184 320.31C505.184 321.077 505.806 321.699 506.573 321.699H522.297C523.064 321.699 523.686 321.077 523.686 320.31C523.686 319.543 523.064 318.921 522.297 318.921Z" fill="white"/>
<path d="M470.369 325.422H467.839C467.072 325.422 466.451 326.044 466.451 326.811C466.451 327.578 467.072 328.2 467.839 328.2H470.369C471.136 328.2 471.758 327.578 471.758 326.811C471.758 326.044 471.136 325.422 470.369 325.422Z" fill="white"/>
<path d="M499.304 325.422H496.774C496.007 325.422 495.385 326.044 495.385 326.811C495.385 327.578 496.007 328.2 496.774 328.2H499.304C500.071 328.2 500.693 327.578 500.693 326.811C500.693 326.044 500.071 325.422 499.304 325.422Z" fill="white"/>
<path d="M507.502 325.422H504.972C504.205 325.422 503.583 326.044 503.583 326.811C503.583 327.578 504.205 328.2 504.972 328.2H507.502C508.269 328.2 508.891 327.578 508.891 326.811C508.891 326.044 508.269 325.422 507.502 325.422Z" fill="white"/>
<path d="M491.433 325.191H475.71C474.943 325.191 474.321 325.812 474.321 326.579C474.321 327.346 474.943 327.968 475.71 327.968H491.433C492.201 327.968 492.822 327.346 492.822 326.579C492.822 325.812 492.201 325.191 491.433 325.191Z" fill="white"/>
<path d="M530.013 325.191H514.289C513.522 325.191 512.9 325.812 512.9 326.579C512.9 327.346 513.522 327.968 514.289 327.968H530.013C530.78 327.968 531.401 327.346 531.401 326.579C531.401 325.812 530.78 325.191 530.013 325.191Z" fill="white"/>
<path d="M478.085 331.691H475.555C474.788 331.691 474.167 332.313 474.167 333.08C474.167 333.847 474.788 334.469 475.555 334.469H478.085C478.852 334.469 479.474 333.847 479.474 333.08C479.474 332.313 478.852 331.691 478.085 331.691Z" fill="white"/>
<path d="M507.02 331.691H504.49C503.723 331.691 503.101 332.313 503.101 333.08C503.101 333.847 503.723 334.469 504.49 334.469H507.02C507.787 334.469 508.408 333.847 508.408 333.08C508.408 332.313 507.787 331.691 507.02 331.691Z" fill="white"/>
<path d="M515.218 331.691H512.688C511.921 331.691 511.299 332.313 511.299 333.08C511.299 333.847 511.921 334.469 512.688 334.469H515.218C515.985 334.469 516.606 333.847 516.606 333.08C516.606 332.313 515.985 331.691 515.218 331.691Z" fill="white"/>
<path d="M499.149 331.46H483.426C482.659 331.46 482.037 332.081 482.037 332.848C482.037 333.616 482.659 334.237 483.426 334.237H499.149C499.916 334.237 500.538 333.616 500.538 332.848C500.538 332.081 499.916 331.46 499.149 331.46Z" fill="white"/>
<path d="M537.728 331.46H522.005C521.238 331.46 520.616 332.081 520.616 332.848C520.616 333.616 521.238 334.237 522.005 334.237H537.728C538.496 334.237 539.117 333.616 539.117 332.848C539.117 332.081 538.496 331.46 537.728 331.46Z" fill="white"/>
<path d="M485.801 337.96H483.271C482.504 337.96 481.882 338.582 481.882 339.349C481.882 340.116 482.504 340.738 483.271 340.738H485.801C486.568 340.738 487.19 340.116 487.19 339.349C487.19 338.582 486.568 337.96 485.801 337.96Z" fill="white"/>
<path d="M514.735 337.96H512.205C511.438 337.96 510.817 338.582 510.817 339.349C510.817 340.116 511.438 340.738 512.205 340.738H514.735C515.502 340.738 516.124 340.116 516.124 339.349C516.124 338.582 515.502 337.96 514.735 337.96Z" fill="white"/>
<path d="M522.933 337.96H520.404C519.637 337.96 519.015 338.582 519.015 339.349C519.015 340.116 519.637 340.738 520.404 340.738H522.933C523.7 340.738 524.322 340.116 524.322 339.349C524.322 338.582 523.7 337.96 522.933 337.96Z" fill="white"/>
<path d="M506.865 337.729H491.141C490.374 337.729 489.753 338.351 489.753 339.118C489.753 339.885 490.374 340.506 491.141 340.506H506.865C507.632 340.506 508.254 339.885 508.254 339.118C508.254 338.351 507.632 337.729 506.865 337.729Z" fill="white"/>
<path d="M491.588 362.889H489.058C488.291 362.889 487.669 363.511 487.669 364.278C487.669 365.045 488.291 365.667 489.058 365.667H491.588C492.355 365.667 492.977 365.045 492.977 364.278C492.977 363.511 492.355 362.889 491.588 362.889Z" fill="white"/>
<path d="M499.786 362.889H497.256C496.489 362.889 495.867 363.511 495.867 364.278C495.867 365.045 496.489 365.667 497.256 365.667H499.786C500.553 365.667 501.175 365.045 501.175 364.278C501.175 363.511 500.553 362.889 499.786 362.889Z" fill="white"/>
<path d="M522.297 363.12H506.573C505.806 363.12 505.184 363.742 505.184 364.509C505.184 365.276 505.806 365.898 506.573 365.898H522.297C523.064 365.898 523.686 365.276 523.686 364.509C523.686 363.742 523.064 363.12 522.297 363.12Z" fill="white"/>
<path d="M462.654 362.889H460.124C459.357 362.889 458.735 363.511 458.735 364.278C458.735 365.045 459.357 365.667 460.124 365.667H462.654C463.421 365.667 464.042 365.045 464.042 364.278C464.042 363.511 463.421 362.889 462.654 362.889Z" fill="white"/>
<path d="M483.718 363.12H467.994C467.227 363.12 466.605 363.742 466.605 364.509C466.605 365.276 467.227 365.898 467.994 365.898H483.718C484.485 365.898 485.107 365.276 485.107 364.509C485.107 363.742 484.485 363.12 483.718 363.12Z" fill="white"/>
<path d="M470.369 356.62H467.839C467.072 356.62 466.451 357.242 466.451 358.009C466.451 358.776 467.072 359.397 467.839 359.397H470.369C471.136 359.397 471.758 358.776 471.758 358.009C471.758 357.242 471.136 356.62 470.369 356.62Z" fill="white"/>
<path d="M499.304 356.62H496.774C496.007 356.62 495.385 357.242 495.385 358.009C495.385 358.776 496.007 359.397 496.774 359.397H499.304C500.071 359.397 500.693 358.776 500.693 358.009C500.693 357.242 500.071 356.62 499.304 356.62Z" fill="white"/>
<path d="M507.502 356.62H504.972C504.205 356.62 503.583 357.242 503.583 358.009C503.583 358.776 504.205 359.397 504.972 359.397H507.502C508.269 359.397 508.891 358.776 508.891 358.009C508.891 357.242 508.269 356.62 507.502 356.62Z" fill="white"/>
<path d="M491.433 356.851H475.71C474.943 356.851 474.321 357.473 474.321 358.24C474.321 359.007 474.943 359.629 475.71 359.629H491.433C492.201 359.629 492.822 359.007 492.822 358.24C492.822 357.473 492.201 356.851 491.433 356.851Z" fill="white"/>
<path d="M478.085 350.351H475.555C474.788 350.351 474.167 350.973 474.167 351.74C474.167 352.507 474.788 353.128 475.555 353.128H478.085C478.852 353.128 479.474 352.507 479.474 351.74C479.474 350.973 478.852 350.351 478.085 350.351Z" fill="white"/>
<path d="M507.02 350.351H504.49C503.723 350.351 503.101 350.973 503.101 351.74C503.101 352.507 503.723 353.128 504.49 353.128H507.02C507.787 353.128 508.408 352.507 508.408 351.74C508.408 350.973 507.787 350.351 507.02 350.351Z" fill="white"/>
<path d="M515.218 350.351H512.688C511.921 350.351 511.299 350.973 511.299 351.74C511.299 352.507 511.921 353.128 512.688 353.128H515.218C515.985 353.128 516.606 352.507 516.606 351.74C516.606 350.973 515.985 350.351 515.218 350.351Z" fill="white"/>
<path d="M499.149 350.582H483.426C482.659 350.582 482.037 351.204 482.037 351.971C482.037 352.738 482.659 353.36 483.426 353.36H499.149C499.916 353.36 500.538 352.738 500.538 351.971C500.538 351.204 499.916 350.582 499.149 350.582Z" fill="white"/>
<path d="M485.801 344.082H483.271C482.504 344.082 481.882 344.703 481.882 345.47C481.882 346.237 482.504 346.859 483.271 346.859H485.801C486.568 346.859 487.19 346.237 487.19 345.47C487.19 344.703 486.568 344.082 485.801 344.082Z" fill="white"/>
<path d="M514.735 344.082H512.205C511.438 344.082 510.817 344.703 510.817 345.47C510.817 346.237 511.438 346.859 512.205 346.859H514.735C515.502 346.859 516.124 346.237 516.124 345.47C516.124 344.703 515.502 344.082 514.735 344.082Z" fill="white"/>
<path d="M522.933 344.082H520.404C519.637 344.082 519.015 344.703 519.015 345.47C519.015 346.237 519.637 346.859 520.404 346.859H522.933C523.7 346.859 524.322 346.237 524.322 345.47C524.322 344.703 523.7 344.082 522.933 344.082Z" fill="white"/>
<path d="M506.865 344.313H491.141C490.374 344.313 489.753 344.935 489.753 345.702C489.753 346.469 490.374 347.091 491.141 347.091H506.865C507.632 347.091 508.254 346.469 508.254 345.702C508.254 344.935 507.632 344.313 506.865 344.313Z" fill="white"/>
<path d="M449.203 436.36L437.327 417.587L474.605 387.87L489.992 370.823C491.991 368.609 494.536 366.957 497.374 366.035C500.211 365.112 503.24 364.95 506.16 365.565C509.079 366.179 511.786 367.55 514.01 369.539C516.234 371.527 517.897 374.065 518.833 376.898C520.22 381.096 519.922 385.668 518.001 389.651C516.081 393.633 512.688 396.713 508.54 398.242L484.208 407.205L449.203 436.36Z" fill="#A07145"/>
<path d="M170.538 300.242V391.485H234.46V300.242C234.461 299.586 234.252 298.947 233.863 298.418C233.474 297.89 232.925 297.5 232.298 297.306C232.003 297.209 231.693 297.161 231.382 297.164H173.625C173.221 297.163 172.819 297.242 172.445 297.397C172.071 297.551 171.731 297.777 171.444 298.063C171.157 298.349 170.93 298.689 170.774 299.063C170.619 299.436 170.539 299.837 170.538 300.242ZM195.484 331.594C195.501 329.795 196.227 328.075 197.505 326.809C198.783 325.543 200.509 324.833 202.308 324.833C204.107 324.833 205.833 325.543 207.111 326.809C208.389 328.075 209.115 329.795 209.132 331.594V342.181C209.122 343.984 208.399 345.711 207.121 346.983C205.842 348.255 204.112 348.97 202.308 348.97C200.504 348.97 198.774 348.255 197.495 346.983C196.217 345.711 195.494 343.984 195.484 342.181V331.594Z" fill="#2F2E41"/>
<path d="M170.343 388.567V397.366C170.344 397.822 170.525 398.259 170.847 398.582C171.168 398.905 171.604 399.088 172.06 399.092H232.939C233.395 399.09 233.832 398.907 234.154 398.583C234.475 398.26 234.656 397.822 234.656 397.366V388.567H170.343Z" fill="black"/>
<path d="M69.9804 162.772V329.37C69.9821 331.493 70.8262 333.528 72.3274 335.029C73.8287 336.531 75.8643 337.375 77.9873 337.376H324.867C326.99 337.375 329.026 336.531 330.527 335.029C332.028 333.528 332.872 331.493 332.874 329.37V162.772C332.869 160.651 332.024 158.619 330.523 157.119C329.022 155.62 326.988 154.777 324.867 154.774H77.9873C75.8661 154.777 73.8324 155.62 72.3317 157.119C70.8309 158.619 69.9855 160.651 69.9804 162.772Z" fill="black"/>
<path d="M75.7721 164.845V327.314C75.7741 328.449 76.2255 329.536 77.0276 330.338C77.8297 331.14 78.917 331.592 80.0513 331.594H322.812C323.946 331.592 325.034 331.14 325.836 330.338C326.638 329.536 327.089 328.449 327.091 327.314V164.845C327.091 163.71 326.641 162.62 325.838 161.816C325.036 161.012 323.948 160.56 322.812 160.557H80.0513C78.9156 160.56 77.8273 161.012 77.025 161.816C76.2228 162.62 75.7722 163.71 75.7721 164.845Z" fill="white"/>
<path d="M120.824 398.496C121.071 398.806 121.386 399.056 121.743 399.227C122.1 399.398 122.492 399.485 122.888 399.483H267.315C267.71 399.483 268.1 399.394 268.457 399.224C268.813 399.054 269.127 398.807 269.376 398.5C269.625 398.193 269.802 397.835 269.895 397.451C269.988 397.067 269.994 396.667 269.913 396.281L267.671 385.632C267.578 385.197 267.378 384.793 267.089 384.456C266.8 384.119 266.431 383.859 266.016 383.701C265.716 383.583 265.396 383.523 265.073 383.523H125.121C124.799 383.523 124.479 383.583 124.178 383.701C123.763 383.859 123.395 384.119 123.106 384.456C122.817 384.793 122.616 385.197 122.524 385.632L120.282 396.281C120.202 396.667 120.209 397.066 120.303 397.45C120.397 397.833 120.575 398.19 120.824 398.496Z" fill="#2F2E41"/>
<path d="M314.934 182.938H87.7835C87.5474 182.933 87.3227 182.835 87.1576 182.666C86.9925 182.498 86.9 182.271 86.9 182.035C86.9 181.799 86.9925 181.572 87.1576 181.403C87.3227 181.234 87.5474 181.137 87.7835 181.131H314.934C315.17 181.137 315.395 181.234 315.56 181.403C315.725 181.572 315.817 181.799 315.817 182.035C315.817 182.271 315.725 182.498 315.56 182.666C315.395 182.835 315.17 182.933 314.934 182.938Z" fill="black"/>
<path d="M103.246 176.519C106.17 176.519 108.54 174.096 108.54 171.107C108.54 168.119 106.17 165.696 103.246 165.696C100.322 165.696 97.952 168.119 97.952 171.107C97.952 174.096 100.322 176.519 103.246 176.519Z" fill="black"/>
<path d="M121.534 176.519C124.457 176.519 126.828 174.096 126.828 171.107C126.828 168.119 124.457 165.696 121.534 165.696C118.61 165.696 116.24 168.119 116.24 171.107C116.24 174.096 118.61 176.519 121.534 176.519Z" fill="black"/>
<path d="M139.821 176.519C142.745 176.519 145.115 174.096 145.115 171.107C145.115 168.119 142.745 165.696 139.821 165.696C136.898 165.696 134.528 168.119 134.528 171.107C134.528 174.096 136.898 176.519 139.821 176.519Z" fill="black"/>
<path d="M303.921 167.034H290.932C290.676 167.04 290.431 167.146 290.252 167.33C290.072 167.514 289.972 167.76 289.972 168.017C289.972 168.274 290.072 168.52 290.252 168.704C290.431 168.888 290.676 168.994 290.932 169H303.921C304.18 168.996 304.426 168.891 304.608 168.707C304.789 168.523 304.891 168.275 304.891 168.017C304.891 167.759 304.789 167.511 304.608 167.327C304.426 167.143 304.18 167.038 303.921 167.034Z" fill="black"/>
<path d="M303.921 170.726H290.932C290.675 170.732 290.431 170.838 290.251 171.022C290.071 171.205 289.971 171.452 289.971 171.709C289.971 171.966 290.071 172.213 290.251 172.397C290.431 172.58 290.675 172.686 290.932 172.692H303.921C304.18 172.689 304.427 172.584 304.609 172.4C304.791 172.216 304.893 171.968 304.893 171.709C304.893 171.45 304.791 171.202 304.609 171.018C304.427 170.834 304.18 170.729 303.921 170.726Z" fill="black"/>
<path d="M303.921 174.418H290.932C290.676 174.424 290.431 174.53 290.252 174.714C290.072 174.898 289.972 175.144 289.972 175.401C289.972 175.658 290.072 175.905 290.252 176.088C290.431 176.272 290.676 176.378 290.932 176.384H303.921C304.18 176.38 304.426 176.275 304.608 176.091C304.789 175.907 304.891 175.659 304.891 175.401C304.891 175.143 304.789 174.895 304.608 174.711C304.426 174.527 304.18 174.422 303.921 174.418Z" fill="black"/>
<path d="M617.062 392.429C617.454 393.57 618.198 394.558 619.186 395.25C620.175 395.942 621.357 396.304 622.563 396.282L646.132 395.675C647.347 395.652 648.522 395.235 649.481 394.489C650.44 393.742 651.132 392.705 651.453 391.532L654.788 355.868C655.971 356.405 657.26 356.669 658.558 356.643C659.687 356.615 660.799 356.365 661.83 355.907C662.862 355.449 663.793 354.792 664.571 353.974C665.349 353.156 665.958 352.193 666.364 351.14C666.769 350.086 666.964 348.963 666.935 347.835C666.907 346.706 666.657 345.595 666.199 344.563C665.741 343.531 665.084 342.6 664.266 341.822C663.448 341.044 662.485 340.435 661.432 340.03C660.378 339.624 659.255 339.43 658.127 339.458C657.608 339.456 657.09 339.51 656.582 339.619C656.03 339.021 655.359 338.546 654.612 338.224C653.866 337.902 653.059 337.74 652.246 337.748L615.992 338.684C615.691 338.695 615.392 338.732 615.098 338.795C614.303 338.943 613.549 339.26 612.886 339.724C612.224 340.188 611.669 340.789 611.258 341.485C610.847 342.182 610.59 342.959 610.505 343.763C610.419 344.567 610.507 345.38 610.762 346.148L617.062 392.429ZM655.472 353.447L657.845 344.948C658.115 343.967 658.121 342.931 657.863 341.946C657.979 341.946 658.08 341.891 658.195 341.891C659.823 341.857 661.397 342.47 662.573 343.596C663.749 344.721 664.431 346.266 664.469 347.894C664.507 349.521 663.898 351.097 662.776 352.276C661.654 353.455 660.11 354.141 658.483 354.183C657.431 354.216 656.39 353.962 655.472 353.447Z" fill="black"/>
<path d="M615.098 338.795C615.87 343.211 624.554 346.316 634.996 345.776C644.598 345.334 652.449 341.962 653.887 337.966C653.355 337.809 652.801 337.735 652.246 337.748L615.992 338.684C615.691 338.695 615.392 338.732 615.098 338.795Z" fill="black"/>
<path d="M636.909 372.831C636.957 372.819 637.003 372.799 637.044 372.772L642.162 369.422C642.224 369.382 642.275 369.327 642.31 369.262C642.345 369.197 642.364 369.124 642.364 369.05C642.364 368.976 642.345 368.904 642.31 368.839C642.275 368.774 642.224 368.719 642.162 368.678L636.842 365.194C636.794 365.161 636.739 365.139 636.681 365.128C636.624 365.117 636.565 365.117 636.507 365.129C636.45 365.141 636.396 365.164 636.347 365.197C636.299 365.23 636.257 365.272 636.225 365.321C636.193 365.37 636.171 365.424 636.16 365.482C636.149 365.54 636.15 365.599 636.162 365.656C636.174 365.713 636.197 365.768 636.23 365.816C636.264 365.864 636.306 365.905 636.355 365.937L641.107 369.049L636.557 372.028C636.469 372.086 636.404 372.173 636.374 372.273C636.344 372.374 636.351 372.483 636.393 372.579C636.435 372.675 636.51 372.754 636.605 372.8C636.7 372.846 636.807 372.857 636.909 372.831Z" fill="#005792"/>
<path d="M628.825 373.204C628.911 373.182 628.989 373.136 629.048 373.069C629.107 373.003 629.145 372.921 629.157 372.833C629.169 372.746 629.154 372.656 629.115 372.577C629.076 372.497 629.014 372.431 628.937 372.387L624.22 369.682L628.78 366.295C628.826 366.26 628.866 366.217 628.896 366.166C628.926 366.116 628.946 366.061 628.954 366.003C628.963 365.945 628.96 365.887 628.946 365.83C628.931 365.773 628.906 365.72 628.871 365.673C628.836 365.626 628.793 365.587 628.743 365.557C628.693 365.527 628.637 365.507 628.579 365.499C628.522 365.49 628.463 365.493 628.406 365.507C628.349 365.521 628.296 365.547 628.249 365.581L623.144 369.374C623.085 369.418 623.037 369.476 623.006 369.543C622.975 369.61 622.961 369.683 622.965 369.757C622.969 369.831 622.992 369.902 623.031 369.965C623.07 370.028 623.124 370.08 623.188 370.116L628.495 373.159C628.595 373.216 628.713 373.233 628.825 373.204Z" fill="#005792"/>
<path d="M636.4 375.767C636.443 375.756 636.484 375.739 636.522 375.716C636.572 375.685 636.616 375.645 636.65 375.598C636.685 375.551 636.71 375.498 636.723 375.441C636.737 375.384 636.74 375.325 636.731 375.267C636.722 375.21 636.702 375.154 636.671 375.104L629.416 363.176C629.354 363.075 629.255 363.003 629.141 362.975C629.026 362.947 628.905 362.966 628.804 363.028C628.704 363.089 628.632 363.188 628.604 363.302C628.576 363.417 628.594 363.538 628.656 363.639L635.911 375.567C635.961 375.649 636.035 375.712 636.123 375.748C636.211 375.784 636.308 375.79 636.4 375.767Z" fill="#005792"/>
<path d="M228.499 232.047H189.184C187.581 232.047 186.28 233.347 186.28 234.951V238.792C186.28 240.395 187.581 241.696 189.184 241.696H228.499C230.103 241.696 231.403 240.395 231.403 238.792V234.951C231.403 233.347 230.103 232.047 228.499 232.047Z" fill="#005792"/>
<path d="M251.415 251.345H166.268C164.664 251.345 163.364 252.645 163.364 254.249V258.09C163.364 259.693 164.664 260.994 166.268 260.994H251.415C253.019 260.994 254.319 259.693 254.319 258.09V254.249C254.319 252.645 253.019 251.345 251.415 251.345Z" fill="#E6E6E6"/>
<path d="M251.415 270.642H166.268C164.664 270.642 163.364 271.943 163.364 273.546V277.387C163.364 278.991 164.664 280.291 166.268 280.291H251.415C253.019 280.291 254.319 278.991 254.319 277.387V273.546C254.319 271.943 253.019 270.642 251.415 270.642Z" fill="#E6E6E6"/>
<path d="M258.633 335.264L258.826 335.873L258.836 335.893L264.641 353.542L271.319 373.88L283.884 412.101L284.006 418.038V418.059L284.939 465.819L282.351 472.294L285.264 482.91C285.264 482.91 283.924 466.863 276.739 476.079C272.669 481.315 267.909 486.674 264.002 491.698C269.696 494.002 275.481 496.086 281.357 497.949C282.625 498.355 283.904 498.741 285.183 499.127C285.457 499.208 285.731 499.289 286.005 499.37C305.484 505.131 325.621 508.368 345.924 509.002C346.98 509.032 348.015 509.052 349.02 509.073C349.375 509.083 349.72 509.093 350.065 509.093C351.202 509.103 352.328 509.113 353.465 509.113C355.758 509.113 358.042 509.079 360.315 509.012C377.142 508.538 393.87 506.275 410.217 502.263C410.106 495.514 409.801 487.628 409.365 479.204C409.162 475.074 404.605 470.598 404.331 466.275C404.138 463.027 408.228 459.972 408.015 456.674C406.635 436.366 404.91 444.162 403.631 429.781C403.499 428.37 403.377 427.02 403.265 425.731C402.443 416.496 401.875 410.721 401.875 410.721L407.335 376.306L415.911 322.273L415.251 321.187L414.511 320.822L369.277 298.433L366.821 292.141C366.105 290.328 364.864 288.771 363.256 287.669C361.648 286.568 359.747 285.973 357.798 285.96L328.001 285.838C326.455 285.832 324.929 286.193 323.55 286.894C322.172 287.595 320.98 288.614 320.075 289.868L312.006 301.042L258.633 335.264Z" fill="black"/>
<path d="M290.755 403.596L284.006 418.038L279.398 427.903L271.472 469.402L267.504 473.614L264.104 458.704L228.519 466.605C227.352 460.119 228.207 466.824 227.486 459.71C227.689 459.507 227.902 459.304 228.116 459.101C228.684 458.573 229.161 458.076 229.151 457.599C228.745 433.059 229.963 391.296 240.132 365.995C241.725 361.863 243.825 357.946 246.384 354.333C246.587 354.059 246.779 353.785 246.972 353.511C251.661 346.945 254.625 340.48 258.826 335.883V335.873C258.852 335.852 258.876 335.828 258.897 335.802C258.913 335.794 258.926 335.784 258.938 335.771L287.801 320.466L289.04 355.257L289.922 380.264L290.755 403.596Z" fill="black"/>
<path d="M394.831 407.698L403.261 425.736L406.204 432.018L414.128 473.513L418.083 477.714L421.491 462.808L423.092 462.479L451.969 456.499L460.386 483.23C462.283 480.069 463.03 476.35 462.501 472.702C461.973 469.054 460.2 465.7 457.484 463.207C456.91 462.687 456.431 462.181 456.444 461.702C456.923 432.839 455.158 380.135 439.214 358.443C434.15 351.559 431.112 344.703 426.691 339.913C426.678 339.899 426.678 339.885 426.664 339.885L415.907 322.272L415.25 321.191L414.511 320.821L394.831 407.698Z" fill="black"/>
<path d="M343.76 277.358C365.654 277.358 383.402 259.61 383.402 237.717C383.402 215.823 365.654 198.075 343.76 198.075C321.867 198.075 304.119 215.823 304.119 237.717C304.119 259.61 321.867 277.358 343.76 277.358Z" fill="#A07145"/>
<path d="M397.341 210.027C397.033 209.699 396.663 209.436 396.252 209.254C395.841 209.072 395.397 208.975 394.948 208.969L395.544 207.314C395.738 206.793 395.791 206.229 395.696 205.681C395.601 205.133 395.362 204.62 395.003 204.194C394.645 203.769 394.18 203.446 393.656 203.26C393.132 203.073 392.567 203.029 392.021 203.133L389.85 203.551L390.054 202.101C390.133 201.56 390.069 201.009 389.87 200.501C389.671 199.993 389.343 199.545 388.918 199.203C388.494 198.86 387.987 198.633 387.449 198.545C386.91 198.458 386.358 198.512 385.846 198.702C385.381 198.885 384.881 198.962 384.382 198.926C383.883 198.891 383.399 198.744 382.964 198.497C382.527 198.258 382.148 197.926 381.853 197.525C381.558 197.124 381.354 196.663 381.256 196.175L380.5 192.528L380.419 192.332C376.736 186.193 369.655 181.727 360.989 180.09C353.276 178.622 345.367 179.37 337.743 180.073C334.718 180.357 331.301 180.678 328.455 182.421C326.035 183.916 323.989 186.905 324.407 189.921C316.889 187.617 308.829 192.216 304.834 198.017C300.101 204.921 299.327 213.568 299.203 220.33C298.865 236.326 302.165 249.412 308.989 259.234C309.487 259.946 309.612 261.432 310.599 261.93L310.395 261.601C311.498 262.152 312.619 263.042 312.201 263.994C310.999 266.734 318.98 272.793 324.602 274.794C334.86 278.451 348.499 278.14 358.089 276.823L358.427 274.554C361.888 274.083 364.326 273.184 365.011 271.778C366.221 270.746 367.253 269.821 368.151 268.967L368.16 268.958C368.178 268.94 368.213 268.914 368.231 268.896C372.564 264.741 373.569 262.375 374.023 258.772C374.459 255.24 373.685 251.654 372.893 248.425C389.565 251.005 366.327 230.667 381.861 226.735C382.039 226.68 382.22 226.636 382.403 226.602C382.857 226.495 383.311 226.388 383.747 226.264C385.848 225.693 387.86 224.834 389.725 223.71C394.067 221.068 395.499 217.563 397.741 213.613C398.065 213.05 398.2 212.399 398.128 211.754C398.056 211.11 397.78 210.505 397.341 210.027Z" fill="black"/>
<path d="M483.967 410.521C483.958 412.077 483.94 414.257 483.869 416.953C483.86 417.326 483.851 417.709 483.842 418.1C483.726 423.056 483.611 427.21 483.424 431.828C483.415 432.148 483.406 432.459 483.388 432.78C483.139 439.221 482.748 446.721 482.072 458.598C480.817 480.537 478.629 461.614 476.431 469.309C476.324 469.692 476.209 470.145 476.102 470.679C475.769 472.616 475.208 474.506 474.429 476.311C473.264 477.005 472.063 477.672 470.88 478.339C467.508 480.216 464.083 482.022 460.631 483.739C458.691 484.7 456.743 485.643 454.786 486.551C454.475 486.693 454.172 486.835 453.87 486.969C443.847 491.605 433.517 495.546 422.954 498.766C420.89 499.388 418.835 499.993 416.753 500.554C414.582 501.159 412.412 501.728 410.214 502.262C393.867 506.275 377.139 508.539 360.313 509.014C358.045 509.086 355.758 509.112 353.463 509.112C352.324 509.112 351.203 509.103 350.064 509.095C349.717 509.095 349.37 509.086 349.023 509.077C348.018 509.05 346.977 509.032 345.927 509.006C325.625 508.372 305.487 505.134 286.009 499.371L285.182 499.13C283.901 498.739 282.628 498.356 281.356 497.947C275.484 496.088 269.699 494.006 263.999 491.702C259.649 489.949 255.348 488.069 251.099 486.061C251.06 486.051 251.024 486.033 250.992 486.008C250.102 485.599 249.204 485.172 248.314 484.736C248.199 484.673 248.074 484.611 247.95 484.549C244.631 482.93 241.348 481.233 238.101 479.46C235.37 473.188 231.526 471.987 229.142 466.471C228.448 464.832 227.947 463.119 227.648 461.364C227.648 461.347 227.639 461.329 227.639 461.302C227.888 464.612 226.58 455.43 227.63 461.267C227.621 461.16 227.612 461.044 227.603 460.911C227.576 460.59 227.541 460.199 227.487 459.71C224.436 429.915 224.632 395.841 223.306 367.764C223.217 365.949 223.125 364.211 223.03 362.55C223.004 361.999 222.968 361.456 222.932 360.922C222.995 360.762 223.066 360.593 223.146 360.433C223.163 360.387 223.184 360.342 223.208 360.299C223.234 360.244 223.264 360.191 223.297 360.139C223.315 360.113 223.342 360.077 223.359 360.05C223.372 360.02 223.387 359.99 223.404 359.961C223.484 359.837 223.573 359.703 223.671 359.579C223.715 359.525 223.751 359.481 223.795 359.436C223.826 359.391 223.862 359.349 223.902 359.312C223.929 359.269 223.962 359.23 224 359.196C224.036 359.161 224.071 359.116 224.116 359.072C224.135 359.044 224.159 359.02 224.187 359.001C224.257 358.92 224.335 358.845 224.418 358.778C224.736 358.486 225.075 358.218 225.432 357.977C225.557 357.897 225.69 357.817 225.815 357.728C226.711 357.192 227.656 356.739 228.635 356.376C228.973 356.251 229.311 356.136 229.676 356.011C229.809 355.976 229.934 355.931 230.067 355.887C230.263 355.824 230.459 355.762 230.663 355.718C231.678 355.415 232.772 355.157 233.955 354.917C234.098 354.89 234.249 354.864 234.4 354.828C234.614 354.784 234.836 354.748 235.058 354.712C235.361 354.659 235.672 354.606 235.984 354.552C238.626 354.134 241.624 353.823 244.934 353.618C245.245 353.6 245.556 353.583 245.868 353.565C246.232 353.547 246.597 353.529 246.971 353.511C247.282 353.494 247.603 353.485 247.923 353.476C248.234 353.458 248.554 353.449 248.884 353.44C249.782 353.413 250.707 353.387 251.651 353.369C254.337 353.316 257.166 353.333 260.138 353.396C261.517 353.431 262.922 353.467 264.364 353.529C264.462 353.529 264.551 353.538 264.64 353.538C265.894 353.583 267.157 353.636 268.456 353.707C269.364 353.752 270.28 353.796 271.196 353.849C272.059 353.903 272.931 353.956 273.812 354.018C274.497 354.054 275.182 354.107 275.876 354.152C276.463 354.196 277.05 354.241 277.637 354.276L278.438 354.33C278.874 354.365 279.31 354.392 279.755 354.437C280.733 354.517 281.712 354.597 282.708 354.677C283.696 354.766 284.701 354.855 285.707 354.944C286.712 355.033 287.726 355.131 288.74 355.228C288.847 355.237 288.945 355.246 289.043 355.255C289.968 355.353 290.893 355.442 291.827 355.54C292.041 355.558 292.263 355.575 292.477 355.602C293.367 355.692 294.275 355.796 295.174 355.892C295.45 355.922 295.724 355.95 296.001 355.981C296.705 356.057 297.399 356.124 298.108 356.207C299.042 356.314 299.994 356.412 300.92 356.536C301.64 356.616 302.361 356.696 303.081 356.785C304.211 356.919 305.359 357.061 306.507 357.212C306.943 357.266 307.379 357.319 307.814 357.381C311.088 357.791 314.398 358.244 317.761 358.716C322.859 359.436 328.036 360.219 333.25 361.065C338.472 361.91 343.724 362.802 349.006 363.742C350.34 363.983 351.675 364.223 353.018 364.472C353.623 364.588 354.228 364.703 354.833 364.819C355.865 365.006 356.897 365.201 357.929 365.397C358.961 365.593 359.993 365.789 361.025 365.993C362.253 366.233 363.489 366.474 364.717 366.714C372.804 368.315 380.846 370.023 388.693 371.812C389.983 372.105 391.273 372.408 392.554 372.701C395.117 373.297 397.655 373.902 400.17 374.516C400.864 374.676 401.549 374.845 402.234 375.014C403.942 375.441 405.65 375.868 407.332 376.304L407.625 376.384C408.862 376.687 410.072 376.998 411.282 377.319C414.137 378.066 416.946 378.822 419.707 379.587C421.539 380.094 423.351 380.607 425.142 381.126C427.82 381.9 430.445 382.683 432.998 383.475C433.63 383.671 434.261 383.866 434.884 384.053C436.752 384.631 438.594 385.219 440.382 385.806C441.806 386.268 443.194 386.74 444.564 387.212C445.934 387.683 447.277 388.155 448.594 388.626C449.439 388.929 450.275 389.249 451.111 389.551C452.313 389.996 453.496 390.441 454.652 390.886C455.008 391.019 455.355 391.162 455.702 391.295C455.925 391.393 456.138 391.473 456.352 391.562C456.77 391.731 457.197 391.891 457.606 392.06C458.024 392.22 458.433 392.389 458.843 392.567C459.243 392.727 459.652 392.896 460.044 393.065C460.444 393.226 460.836 393.395 461.227 393.573C461.556 393.706 461.876 393.848 462.188 393.991C462.819 394.267 463.451 394.542 464.065 394.827C464.367 394.969 464.67 395.103 464.972 395.245L465.666 395.565C465.764 395.619 465.862 395.663 465.96 395.708C466.182 395.815 466.414 395.93 466.636 396.037C467.152 396.277 467.659 396.535 468.157 396.775C468.825 397.113 469.474 397.451 470.097 397.781C470.728 398.119 471.342 398.457 471.929 398.786C472.027 398.839 472.116 398.893 472.214 398.946C472.348 399.017 472.481 399.097 472.615 399.169C473.068 399.427 473.504 399.693 473.94 399.951C474.794 400.476 475.604 400.992 476.36 401.508C476.529 401.624 476.689 401.74 476.858 401.846C477.419 402.247 477.952 402.638 478.451 403.038C478.451 403.047 478.451 403.047 478.46 403.047C478.629 403.172 478.789 403.305 478.949 403.43C479.082 403.554 479.225 403.661 479.358 403.786C479.821 404.186 480.248 404.569 480.639 404.96C480.77 405.081 480.895 405.209 481.013 405.343C481.065 405.386 481.112 405.433 481.155 405.485C481.333 405.663 481.493 405.841 481.645 406.019C481.668 406.043 481.689 406.07 481.707 406.099C481.92 406.348 482.116 406.597 482.303 406.846C482.392 406.971 482.49 407.095 482.57 407.22C482.677 407.371 482.783 407.531 482.872 407.683C482.952 407.807 483.024 407.94 483.095 408.065C483.283 408.386 483.444 408.722 483.575 409.07C483.675 409.307 483.755 409.55 483.815 409.8C483.883 410.036 483.933 410.277 483.967 410.521Z" fill="#2F2E41"/>
<path opacity="0.2" d="M483.967 410.521C483.958 412.077 483.94 414.257 483.869 416.953C483.86 417.326 483.842 417.709 483.833 418.1C483.744 421.881 483.611 426.552 483.424 431.828C483.415 432.148 483.406 432.459 483.388 432.78C483.139 439.221 482.748 446.721 482.072 458.598C480.817 480.537 478.629 461.614 476.431 469.309C470.328 465.555 463.638 461.622 456.485 457.583C455.195 456.854 453.893 456.121 452.579 455.386C438.274 447.406 422.296 439.043 405.614 430.76C404.956 430.431 404.289 430.102 403.631 429.782C365.42 410.894 323.713 392.523 289.924 380.263C283.402 377.897 277.175 375.762 271.321 373.884C258.99 369.943 248.332 367.185 240.129 365.993C231.589 364.748 225.69 365.192 223.306 367.764C223.217 365.949 223.125 364.211 223.03 362.55C222.995 361.999 222.959 361.456 222.923 360.922C222.978 360.776 223.05 360.636 223.119 360.495C223.129 360.474 223.136 360.453 223.146 360.433C223.163 360.387 223.184 360.342 223.208 360.299C223.234 360.244 223.264 360.191 223.297 360.139C223.326 360.076 223.362 360.016 223.404 359.961C223.484 359.837 223.573 359.703 223.671 359.579C223.743 359.485 223.82 359.396 223.902 359.312C223.929 359.269 223.962 359.23 224 359.196C224.035 359.161 224.071 359.116 224.116 359.072C224.135 359.044 224.159 359.02 224.187 359C224.257 358.92 224.335 358.845 224.418 358.778C224.735 358.486 225.074 358.218 225.432 357.977C225.557 357.897 225.69 357.817 225.815 357.728C226.711 357.192 227.655 356.739 228.635 356.376C228.973 356.251 229.311 356.136 229.676 356.011C229.809 355.976 229.934 355.931 230.067 355.887C230.263 355.824 230.459 355.762 230.663 355.718C231.678 355.415 232.772 355.157 233.955 354.917C234.311 354.846 234.685 354.775 235.058 354.712C235.361 354.659 235.672 354.606 235.984 354.552C238.626 354.134 241.624 353.823 244.934 353.618C245.245 353.6 245.556 353.582 245.868 353.565C246.232 353.547 246.597 353.529 246.971 353.511C247.282 353.493 247.602 353.485 247.923 353.476C248.234 353.458 248.554 353.449 248.884 353.44C249.782 353.413 250.707 353.387 251.65 353.369C254.337 353.324 257.166 353.342 260.138 353.405C261.517 353.431 262.922 353.476 264.364 353.538C264.453 353.538 264.55 353.547 264.639 353.547C265.894 353.582 267.166 353.645 268.456 353.707C269.364 353.752 270.28 353.796 271.196 353.849C272.059 353.903 272.931 353.956 273.812 354.018C274.497 354.054 275.182 354.107 275.876 354.152C276.463 354.196 277.05 354.241 277.637 354.276C278.34 354.33 279.043 354.383 279.755 354.437C280.733 354.517 281.712 354.597 282.708 354.677C283.696 354.766 284.701 354.855 285.706 354.944C286.712 355.033 287.726 355.13 288.74 355.228C288.847 355.237 288.945 355.246 289.043 355.255C289.968 355.353 290.893 355.442 291.827 355.54C297.005 356.065 302.334 356.678 307.814 357.381C311.088 357.799 314.404 358.247 317.761 358.725C322.859 359.445 328.036 360.228 333.25 361.064C338.472 361.91 343.724 362.802 349.006 363.742C350.34 363.983 351.675 364.223 353.018 364.472C354.655 364.774 356.292 365.083 357.929 365.397C358.961 365.593 359.993 365.789 361.025 365.993C362.253 366.233 363.489 366.474 364.717 366.714C372.804 368.315 380.846 370.023 388.693 371.812C389.983 372.105 391.273 372.408 392.554 372.701C395.116 373.297 397.655 373.902 400.17 374.516C400.864 374.685 401.549 374.854 402.234 375.023C403.951 375.45 405.65 375.877 407.331 376.304V376.313C407.429 376.331 407.527 376.358 407.625 376.384C408.853 376.696 410.072 377.007 411.282 377.327C414.137 378.075 416.946 378.828 419.707 379.587C421.539 380.103 423.354 380.61 425.142 381.126C427.82 381.909 430.445 382.692 432.998 383.475C433.63 383.671 434.261 383.866 434.884 384.053C436.752 384.64 438.585 385.225 440.382 385.806C441.806 386.268 443.194 386.74 444.564 387.211C445.934 387.683 447.277 388.155 448.594 388.626C449.448 388.929 450.284 389.24 451.112 389.542C452.321 389.987 453.496 390.432 454.652 390.886C455.008 391.019 455.355 391.162 455.702 391.295C456.352 391.544 456.983 391.802 457.606 392.06C458.024 392.22 458.433 392.389 458.843 392.567C459.243 392.727 459.652 392.896 460.044 393.065C460.444 393.226 460.835 393.395 461.227 393.573C461.556 393.706 461.876 393.848 462.188 393.991C462.819 394.266 463.451 394.542 464.065 394.827C464.367 394.969 464.67 395.103 464.972 395.245L465.666 395.565C465.764 395.619 465.862 395.663 465.96 395.708C466.716 396.064 467.446 396.419 468.157 396.775C468.825 397.113 469.474 397.451 470.097 397.781C470.835 398.172 471.538 398.555 472.214 398.946C472.348 399.017 472.481 399.097 472.615 399.168C473.068 399.426 473.504 399.693 473.94 399.951C474.794 400.476 475.604 400.992 476.36 401.508C477.107 402.024 477.801 402.531 478.451 403.038C478.451 403.047 478.451 403.047 478.46 403.047C478.771 403.296 479.073 403.546 479.358 403.786C479.821 404.186 480.248 404.569 480.639 404.96C480.77 405.081 480.895 405.209 481.013 405.343C481.065 405.386 481.112 405.433 481.155 405.485C481.342 405.69 481.529 405.894 481.707 406.099C481.92 406.348 482.116 406.597 482.303 406.846C482.392 406.971 482.49 407.095 482.57 407.22C482.677 407.371 482.783 407.531 482.872 407.682C482.952 407.807 483.024 407.94 483.095 408.065C483.284 408.386 483.444 408.722 483.575 409.07C483.672 409.307 483.753 409.551 483.815 409.8C483.883 410.036 483.933 410.277 483.967 410.521Z" fill="black"/>
<path d="M331 277H357C357.552 277 358 277.448 358 278V285C358 285.552 357.552 286 357 286H331V277Z" fill="#A07145"/>
</g>
<defs>
<clipPath id="clip0_110_2">
<rect width="700" height="509.113" fill="white"/>
</clipPath>
</defs>
</svg>
